<svg width="47" height="47" viewBox="0 0 47 47" fill="none" xmlns="http://www.w3.org/2000/svg">
<g id="003-facebook" clip-path="url(#clip0_0_188)">
<g id="Group">
<path id="Vector" d="M23.5156 46.7441C36.2182 46.7441 46.5156 36.4467 46.5156 23.7441C46.5156 11.0416 36.2182 0.744141 23.5156 0.744141C10.8131 0.744141 0.515625 11.0416 0.515625 23.7441C0.515625 36.4467 10.8131 46.7441 23.5156 46.7441Z" fill="#3B5998"/>
<path id="Vector_2" d="M29.2979 24.6446H25.1939V39.68H18.9759V24.6446H16.0186V19.3605H18.9759V15.9412C18.9759 13.496 20.1374 9.66699 25.2492 9.66699L29.8551 9.68626V14.8153H26.5132C25.9651 14.8153 25.1943 15.0892 25.1943 16.2556V19.3655H29.8412L29.2979 24.6446Z" fill="white"/>
</g>
</g>
<defs>
<clipPath id="clip0_0_188">
<rect width="46" height="46" fill="white" transform="translate(0.515625 0.744141)"/>
</clipPath>
</defs>
</svg>
