<svg width="49" height="49" viewBox="0 0 49 49" fill="none" xmlns="http://www.w3.org/2000/svg">
<g id="004-linkedin" clip-path="url(#clip0_0_199)">
<g id="Group">
<path id="Vector" d="M24.5156 48.7432C37.7705 48.7432 48.5156 37.998 48.5156 24.7432C48.5156 11.4883 37.7705 0.743164 24.5156 0.743164C11.2608 0.743164 0.515625 11.4883 0.515625 24.7432C0.515625 37.998 11.2608 48.7432 24.5156 48.7432Z" fill="#007AB9"/>
<g id="Group_2">
<path id="Vector_2" d="M38.8552 26.6748V36.5695H33.1185V27.3379C33.1185 25.02 32.2902 23.4371 30.2131 23.4371C28.6281 23.4371 27.6864 24.5028 27.2706 25.5347C27.1196 25.9035 27.0806 26.4156 27.0806 26.9328V36.5691H21.3435C21.3435 36.5691 21.4205 20.9339 21.3435 19.3154H27.081V21.7604C27.0695 21.7797 27.0532 21.7985 27.043 21.8169H27.081V21.7604C27.8434 20.5873 29.203 18.9103 32.2513 18.9103C36.0255 18.9103 38.8552 21.3762 38.8552 26.6748ZM15.342 10.9985C13.3796 10.9985 12.0957 12.2867 12.0957 13.9792C12.0957 15.6357 13.3424 16.9611 15.2667 16.9611H15.3039C17.3049 16.9611 18.549 15.6357 18.549 13.9792C18.5109 12.2867 17.3049 10.9985 15.342 10.9985ZM12.4367 36.5695H18.1716V19.3154H12.4367V36.5695Z" fill="#F1F2F2"/>
</g>
</g>
</g>
<defs>
<clipPath id="clip0_0_199">
<rect width="48" height="48" fill="white" transform="translate(0.515625 0.744141)"/>
</clipPath>
</defs>
</svg>
