<svg width="43" height="43" viewBox="0 0 43 43" fill="none" xmlns="http://www.w3.org/2000/svg">
<g id="material-symbols:call">
<path id="Vector" d="M35.7438 37.625C31.8917 37.625 28.1369 36.7662 24.4795 35.0486C20.821 33.3322 17.581 31.0627 14.7597 28.2402C11.9373 25.419 9.66783 22.179 7.95142 18.5205C6.23381 14.8631 5.375 11.1083 5.375 7.25625C5.375 6.71875 5.55417 6.27083 5.9125 5.9125C6.27083 5.55417 6.71875 5.375 7.25625 5.375H14.5125C14.9306 5.375 15.3038 5.50937 15.6323 5.77812C15.9608 6.04687 16.1549 6.39028 16.2146 6.80833L17.3792 13.0792C17.4389 13.4972 17.4317 13.8777 17.3577 14.2205C17.2824 14.5645 17.1104 14.8708 16.8417 15.1396L12.5417 19.5292C13.7958 21.6792 15.3635 23.6948 17.2448 25.576C19.126 27.4573 21.2014 29.0847 23.4708 30.4583L27.6812 26.2479C27.95 25.9792 28.3012 25.7773 28.7347 25.6423C29.1671 25.5086 29.5924 25.4715 30.0104 25.5312L36.1917 26.7854C36.6097 26.875 36.9531 27.0763 37.2219 27.3892C37.4906 27.7033 37.625 28.0694 37.625 28.4875V35.7438C37.625 36.2812 37.4458 36.7292 37.0875 37.0875C36.7292 37.4458 36.2812 37.625 35.7438 37.625Z" fill="#144CA1"/>
</g>
</svg>
