<svg width="47" height="47" viewBox="0 0 47 47" fill="none" xmlns="http://www.w3.org/2000/svg">
<g id="005-youtube" clip-path="url(#clip0_0_193)">
<path id="Vector" d="M23.5157 46.7442C36.2183 46.7442 46.5157 36.4468 46.5157 23.7442C46.5157 11.0416 36.2183 0.744141 23.5157 0.744141C10.8131 0.744141 0.515625 11.0416 0.515625 23.7442C0.515625 36.4468 10.8131 46.7442 23.5157 46.7442Z" fill="#D42428"/>
<path id="Vector_2" d="M39.7781 7.47852C48.7602 16.4614 48.7609 31.0247 39.7781 40.0076C30.796 48.9897 16.2319 48.99 7.24902 40.0076L39.7781 7.47852Z" fill="#CC202D"/>
<path id="Vector_3" d="M46.0531 28.3508L34.6696 16.9678L21.244 18.4964L13.123 31.0688L28.2977 46.2431C37.2195 44.3557 44.2336 37.2985 46.0531 28.3508Z" fill="#BA202E"/>
<path id="Vector_4" d="M35.5519 19.3058C35.5519 17.3777 33.9899 15.8149 32.0629 15.8149H15.6934C13.7668 15.8149 12.2051 17.3781 12.2051 19.3058V28.6667C12.2051 30.5948 13.7671 32.1576 15.6934 32.1576H32.0626C33.99 32.1576 35.5516 30.5944 35.5516 28.6667V19.3058H35.5519ZM21.5431 27.9353V19.1431L28.2106 23.5394L21.5431 27.9353Z" fill="white"/>
</g>
<defs>
<clipPath id="clip0_0_193">
<rect width="46" height="46" fill="white" transform="translate(0.515625 0.744141)"/>
</clipPath>
</defs>
</svg>
