<svg width="13" height="15" viewBox="0 0 13 15" fill="none" xmlns="http://www.w3.org/2000/svg">
<path id="Vector" d="M6.5077 9.33051C6.05139 9.33051 5.62407 9.15348 5.30053 8.82994C4.97852 8.5064 4.79996 8.07909 4.79996 7.62278C4.79996 7.16646 4.97852 6.73915 5.30053 6.41561C5.62407 6.09359 6.05139 5.91504 6.5077 5.91504C6.96401 5.91504 7.39133 6.09359 7.71487 6.41561C8.03688 6.73915 8.21544 7.16646 8.21544 7.62278C8.21544 8.07909 8.03688 8.5064 7.71487 8.82994C7.55684 8.98918 7.36875 9.11544 7.16152 9.20137C6.95429 9.2873 6.73204 9.3312 6.5077 9.33051ZM12.7999 5.73648L11.8018 6.58959C11.8492 6.87955 11.8736 7.17562 11.8736 7.47016C11.8736 7.76471 11.8492 8.0623 11.8018 8.35074L12.7999 9.20385C12.8753 9.26839 12.9293 9.35436 12.9546 9.45032C12.98 9.54628 12.9755 9.64768 12.9419 9.74104L12.9281 9.78072C12.6534 10.5488 12.2419 11.2608 11.7133 11.8822L11.6859 11.9143C11.6217 11.9897 11.5361 12.044 11.4405 12.0698C11.3449 12.0957 11.2437 12.092 11.1502 12.0592L9.91097 11.6182C9.45313 11.9936 8.9434 12.2897 8.39094 12.4957L8.15134 13.7914C8.13327 13.889 8.08592 13.9788 8.01559 14.0489C7.94526 14.1189 7.85528 14.1659 7.7576 14.1836L7.7164 14.1912C6.92281 14.3347 6.08649 14.3347 5.2929 14.1912L5.2517 14.1836C5.15402 14.1659 5.06404 14.1189 4.99371 14.0489C4.92338 13.9788 4.87603 13.889 4.85795 13.7914L4.61683 12.4896C4.0696 12.2819 3.55982 11.9866 3.10748 11.6151L1.85911 12.0592C1.76566 12.0923 1.66436 12.0961 1.56868 12.0702C1.473 12.0443 1.38746 11.9899 1.32344 11.9143L1.29597 11.8822C0.768375 11.2602 0.356898 10.5484 0.0811702 9.78072L0.067435 9.74104C-0.00124084 9.55028 0.055226 9.33662 0.209365 9.20385L1.21966 8.34158C1.17235 8.05467 1.14946 7.76165 1.14946 7.47169C1.14946 7.17867 1.17235 6.88565 1.21966 6.60179L0.212417 5.73953C0.13702 5.67499 0.0830571 5.58902 0.0577043 5.49306C0.0323515 5.3971 0.0368101 5.2957 0.0704872 5.20233L0.0842224 5.16265C0.360452 4.39501 0.767928 3.68536 1.29902 3.06117L1.32649 3.02913C1.39067 2.95366 1.47621 2.89941 1.57184 2.87353C1.66746 2.84765 1.76868 2.85135 1.86216 2.88414L3.11054 3.32825C3.56532 2.95434 4.072 2.65828 4.61988 2.45377L4.86101 1.15199C4.87908 1.05438 4.92643 0.964581 4.99676 0.894526C5.06709 0.824469 5.15707 0.77747 5.25475 0.759771L5.29595 0.752141C6.09735 0.607913 6.91805 0.607913 7.71945 0.752141L7.76065 0.759771C7.85833 0.77747 7.94831 0.824469 8.01864 0.894526C8.08897 0.964581 8.13632 1.05438 8.1544 1.15199L8.394 2.44767C8.94646 2.65522 9.45618 2.94977 9.91402 3.3252L11.1532 2.88414C11.2467 2.85109 11.348 2.84726 11.4437 2.87315C11.5394 2.89905 11.6249 2.95345 11.6889 3.02913L11.7164 3.06117C12.2475 3.68841 12.655 4.39501 12.9312 5.16265L12.9449 5.20233C13.0105 5.39157 12.9541 5.60371 12.7999 5.73648ZM6.5077 4.93984C5.02583 4.93984 3.82477 6.1409 3.82477 7.62278C3.82477 9.10465 5.02583 10.3057 6.5077 10.3057C7.98957 10.3057 9.19064 9.10465 9.19064 7.62278C9.19064 6.1409 7.98957 4.93984 6.5077 4.93984Z" fill="#F02801"/>
</svg>
